<mxfile host="Electron" agent="Mozilla/5.0 (Windows NT 10.0; Win64; x64) AppleWebKit/537.36 (KHTML, like Gecko) draw.io/28.0.6 Chrome/138.0.7204.100 Electron/37.2.3 Safari/537.36" version="28.0.6">
  <diagram name="Page-1" id="zaJnTUh9UHmi-UQveYqn">
    <mxGraphModel dx="1389" dy="835" grid="1" gridSize="10" guides="1" tooltips="1" connect="1" arrows="1" fold="1" page="1" pageScale="1" pageWidth="850" pageHeight="1100" math="0" shadow="0">
      <root>
        <mxCell id="0" />
        <mxCell id="1" parent="0" />
        <mxCell id="PhqGcx4Hnth5ng1oRxhu-1" value="&lt;b&gt;&lt;font style=&quot;font-size: 26px;&quot;&gt;High Level Architecture&lt;/font&gt;&lt;/b&gt;&lt;div&gt;&lt;br&gt;&lt;/div&gt;" style="text;html=1;align=center;verticalAlign=middle;resizable=0;points=[];autosize=1;strokeColor=none;fillColor=none;" parent="1" vertex="1">
          <mxGeometry x="10" y="10" width="310" height="60" as="geometry" />
        </mxCell>
        <mxCell id="PhqGcx4Hnth5ng1oRxhu-2" value="&#xa;&lt;b style=&quot;forced-color-adjust: none; color: rgb(0, 0, 0); font-family: Helvetica; font-size: 12px; font-style: normal; font-variant-ligatures: normal; font-variant-caps: normal; letter-spacing: normal; orphans: 2; text-align: center; text-indent: 0px; text-transform: none; widows: 2; word-spacing: 0px; -webkit-text-stroke-width: 0px; white-space: normal; background-color: rgb(236, 236, 236); text-decoration-thickness: initial; text-decoration-style: initial; text-decoration-color: initial;&quot;&gt;&lt;font style=&quot;forced-color-adjust: none; font-size: 16px;&quot;&gt;CRM&lt;/font&gt;&lt;/b&gt;&#xa;&#xa;" style="rounded=0;whiteSpace=wrap;html=1;fillColor=none;strokeColor=light-dark(#8a8a8a, #ededed);dashed=1;" parent="1" vertex="1">
          <mxGeometry x="40" y="130" width="210" height="710" as="geometry" />
        </mxCell>
        <mxCell id="PhqGcx4Hnth5ng1oRxhu-3" value="Sources" style="rounded=0;whiteSpace=wrap;html=1;fontSize=24;fillColor=default;dashed=1;" parent="1" vertex="1">
          <mxGeometry x="89" y="110" width="100" height="40" as="geometry" />
        </mxCell>
        <mxCell id="PhqGcx4Hnth5ng1oRxhu-5" value="" style="rounded=0;whiteSpace=wrap;html=1;fillColor=none;strokeColor=light-dark(#8a8a8a, #ededed);dashed=1;" parent="1" vertex="1">
          <mxGeometry x="280" y="150" width="690" height="720" as="geometry" />
        </mxCell>
        <mxCell id="PhqGcx4Hnth5ng1oRxhu-6" value="Data Warehouse" style="rounded=0;whiteSpace=wrap;html=1;fontSize=24;fillColor=default;dashed=1;" parent="1" vertex="1">
          <mxGeometry x="510" y="130" width="240" height="40" as="geometry" />
        </mxCell>
        <mxCell id="PhqGcx4Hnth5ng1oRxhu-10" value="" style="rounded=0;whiteSpace=wrap;html=1;fillColor=none;strokeColor=light-dark(#8a8a8a, #ededed);dashed=1;" parent="1" vertex="1">
          <mxGeometry x="1005" y="130" width="140" height="730" as="geometry" />
        </mxCell>
        <mxCell id="PhqGcx4Hnth5ng1oRxhu-11" value="Consume" style="rounded=0;whiteSpace=wrap;html=1;fontSize=24;fillColor=default;dashed=1;" parent="1" vertex="1">
          <mxGeometry x="1020" y="100" width="110" height="40" as="geometry" />
        </mxCell>
        <mxCell id="PhqGcx4Hnth5ng1oRxhu-12" value="Bronze Layer" style="rounded=0;whiteSpace=wrap;html=1;fillColor=default;strokeColor=#d79b00;fontSize=20;fontStyle=1" parent="1" vertex="1">
          <mxGeometry x="290" y="190" width="145" height="20" as="geometry" />
        </mxCell>
        <mxCell id="PhqGcx4Hnth5ng1oRxhu-15" value="" style="rounded=0;whiteSpace=wrap;html=1;fillColor=none;strokeColor=#d79b00;fontSize=20;" parent="1" vertex="1">
          <mxGeometry x="290" y="220" width="180" height="600" as="geometry" />
        </mxCell>
        <mxCell id="PhqGcx4Hnth5ng1oRxhu-18" value="Silver Layer" style="rounded=0;whiteSpace=wrap;html=1;fillColor=#f5f5f5;strokeColor=light-dark(#dedede, #959595);fontSize=20;fontColor=#333333;fontStyle=1" parent="1" vertex="1">
          <mxGeometry x="530" y="190" width="145" height="20" as="geometry" />
        </mxCell>
        <mxCell id="PhqGcx4Hnth5ng1oRxhu-19" value="" style="rounded=0;whiteSpace=wrap;html=1;fillColor=none;strokeColor=#d79b00;fontSize=20;" parent="1" vertex="1">
          <mxGeometry x="510" y="220" width="190" height="607.5" as="geometry" />
        </mxCell>
        <mxCell id="PhqGcx4Hnth5ng1oRxhu-21" value="Gold Layer" style="rounded=0;whiteSpace=wrap;html=1;fillColor=default;strokeColor=light-dark(#fff700, #5c79a3);fontSize=20;fontStyle=1" parent="1" vertex="1">
          <mxGeometry x="740" y="190" width="145" height="20" as="geometry" />
        </mxCell>
        <mxCell id="PhqGcx4Hnth5ng1oRxhu-22" value="" style="rounded=0;whiteSpace=wrap;html=1;fillColor=none;strokeColor=#d79b00;fontSize=20;" parent="1" vertex="1">
          <mxGeometry x="750" y="230" width="190" height="597.5" as="geometry" />
        </mxCell>
        <mxCell id="PhqGcx4Hnth5ng1oRxhu-23" value="" style="image;aspect=fixed;html=1;points=[];align=center;fontSize=12;image=img/lib/azure2/general/Folder_Blank.svg;" parent="1" vertex="1">
          <mxGeometry x="120" y="250" width="69" height="56.00000000000001" as="geometry" />
        </mxCell>
        <mxCell id="PhqGcx4Hnth5ng1oRxhu-24" value="" style="image;aspect=fixed;html=1;points=[];align=center;fontSize=12;image=img/lib/azure2/general/File.svg;" parent="1" vertex="1">
          <mxGeometry x="168.35" y="280" width="31.65" height="39" as="geometry" />
        </mxCell>
        <mxCell id="PhqGcx4Hnth5ng1oRxhu-25" value="" style="image;aspect=fixed;html=1;points=[];align=center;fontSize=12;image=img/lib/azure2/general/Folder_Blank.svg;" parent="1" vertex="1">
          <mxGeometry x="120" y="390" width="69" height="56.00000000000001" as="geometry" />
        </mxCell>
        <mxCell id="PhqGcx4Hnth5ng1oRxhu-26" value="" style="image;aspect=fixed;html=1;points=[];align=center;fontSize=12;image=img/lib/azure2/general/File.svg;" parent="1" vertex="1">
          <mxGeometry x="157.35" y="430" width="31.65" height="39" as="geometry" />
        </mxCell>
        <mxCell id="PhqGcx4Hnth5ng1oRxhu-29" value="&lt;b&gt;&lt;font style=&quot;font-size: 16px;&quot;&gt;ERM&lt;/font&gt;&lt;/b&gt;" style="text;html=1;align=center;verticalAlign=middle;resizable=0;points=[];autosize=1;strokeColor=none;fillColor=none;" parent="1" vertex="1">
          <mxGeometry x="113.35" y="319" width="60" height="30" as="geometry" />
        </mxCell>
        <mxCell id="PhqGcx4Hnth5ng1oRxhu-30" value="" style="endArrow=none;html=1;rounded=0;" parent="1" edge="1">
          <mxGeometry width="50" height="50" relative="1" as="geometry">
            <mxPoint x="90" y="500" as="sourcePoint" />
            <mxPoint x="200" y="500" as="targetPoint" />
          </mxGeometry>
        </mxCell>
        <mxCell id="PhqGcx4Hnth5ng1oRxhu-34" value="&lt;b&gt;Object&amp;nbsp; Type:&lt;/b&gt; CSV file&amp;nbsp;&lt;div&gt;&lt;b&gt;Interface:&lt;/b&gt;&amp;nbsp; In Folder&lt;/div&gt;" style="text;html=1;align=center;verticalAlign=middle;resizable=0;points=[];autosize=1;strokeColor=none;fillColor=none;fontSize=20;" parent="1" vertex="1">
          <mxGeometry x="30" y="520" width="230" height="60" as="geometry" />
        </mxCell>
        <mxCell id="gpXqBkKYN1dgfwq-3Qaj-1" value="" style="html=1;verticalLabelPosition=bottom;align=center;labelBackgroundColor=#ffffff;verticalAlign=top;strokeWidth=2;strokeColor=#0080F0;shadow=0;dashed=0;shape=mxgraph.ios7.icons.data;" vertex="1" parent="1">
          <mxGeometry x="324.25" y="306" width="89" height="94" as="geometry" />
        </mxCell>
        <mxCell id="gpXqBkKYN1dgfwq-3Qaj-2" value="" style="html=1;verticalLabelPosition=bottom;align=center;labelBackgroundColor=#ffffff;verticalAlign=top;strokeWidth=2;strokeColor=#0080F0;shadow=0;dashed=0;shape=mxgraph.ios7.icons.data;" vertex="1" parent="1">
          <mxGeometry x="558" y="296" width="89" height="94" as="geometry" />
        </mxCell>
        <mxCell id="gpXqBkKYN1dgfwq-3Qaj-3" value="" style="html=1;verticalLabelPosition=bottom;align=center;labelBackgroundColor=#ffffff;verticalAlign=top;strokeWidth=2;strokeColor=#0080F0;shadow=0;dashed=0;shape=mxgraph.ios7.icons.data;" vertex="1" parent="1">
          <mxGeometry x="790" y="306" width="89" height="94" as="geometry" />
        </mxCell>
        <mxCell id="gpXqBkKYN1dgfwq-3Qaj-4" value="" style="shape=singleArrow;whiteSpace=wrap;html=1;fillColor=#b1ddf0;strokeColor=#10739e;" vertex="1" parent="1">
          <mxGeometry x="189" y="340" width="110" height="60" as="geometry" />
        </mxCell>
        <mxCell id="gpXqBkKYN1dgfwq-3Qaj-6" value="" style="shape=singleArrow;whiteSpace=wrap;html=1;fillColor=#b1ddf0;strokeColor=#10739e;" vertex="1" parent="1">
          <mxGeometry x="425" y="327.5" width="115" height="70" as="geometry" />
        </mxCell>
        <mxCell id="gpXqBkKYN1dgfwq-3Qaj-7" value="" style="shape=singleArrow;whiteSpace=wrap;html=1;fillColor=#b1ddf0;strokeColor=#10739e;" vertex="1" parent="1">
          <mxGeometry x="670" y="335" width="105" height="50" as="geometry" />
        </mxCell>
        <mxCell id="gpXqBkKYN1dgfwq-3Qaj-8" value="" style="shape=singleArrow;whiteSpace=wrap;html=1;fillColor=#b1ddf0;strokeColor=#10739e;" vertex="1" parent="1">
          <mxGeometry x="920" y="335" width="110" height="55" as="geometry" />
        </mxCell>
        <mxCell id="gpXqBkKYN1dgfwq-3Qaj-13" value="Row Data&amp;nbsp;" style="text;html=1;align=center;verticalAlign=middle;whiteSpace=wrap;rounded=0;fontSize=16;" vertex="1" parent="1">
          <mxGeometry x="310" y="413.5" width="150" height="46.5" as="geometry" />
        </mxCell>
        <mxCell id="gpXqBkKYN1dgfwq-3Qaj-16" value="Cleared Standerd Data" style="text;html=1;align=center;verticalAlign=middle;whiteSpace=wrap;rounded=0;fontSize=15;" vertex="1" parent="1">
          <mxGeometry x="560" y="422" width="100" height="38" as="geometry" />
        </mxCell>
        <mxCell id="gpXqBkKYN1dgfwq-3Qaj-17" value="Buniness-Ready&lt;div&gt;Data&amp;nbsp;&lt;/div&gt;" style="text;html=1;align=center;verticalAlign=middle;whiteSpace=wrap;rounded=0;fontSize=16;" vertex="1" parent="1">
          <mxGeometry x="775" y="427" width="136.5" height="28" as="geometry" />
        </mxCell>
        <mxCell id="gpXqBkKYN1dgfwq-3Qaj-22" value="" style="endArrow=none;html=1;rounded=0;" edge="1" parent="1">
          <mxGeometry width="50" height="50" relative="1" as="geometry">
            <mxPoint x="310" y="500" as="sourcePoint" />
            <mxPoint x="440" y="500" as="targetPoint" />
          </mxGeometry>
        </mxCell>
        <mxCell id="gpXqBkKYN1dgfwq-3Qaj-23" value="" style="endArrow=none;html=1;rounded=0;" edge="1" parent="1">
          <mxGeometry width="50" height="50" relative="1" as="geometry">
            <mxPoint x="545" y="500" as="sourcePoint" />
            <mxPoint x="675" y="500" as="targetPoint" />
          </mxGeometry>
        </mxCell>
        <mxCell id="gpXqBkKYN1dgfwq-3Qaj-24" value="" style="endArrow=none;html=1;rounded=0;" edge="1" parent="1">
          <mxGeometry width="50" height="50" relative="1" as="geometry">
            <mxPoint x="769.5" y="500" as="sourcePoint" />
            <mxPoint x="899.5" y="500" as="targetPoint" />
          </mxGeometry>
        </mxCell>
        <mxCell id="gpXqBkKYN1dgfwq-3Qaj-28" value="&lt;b&gt;Object&amp;nbsp; Type:&lt;/b&gt;&amp;nbsp;Table&amp;nbsp;&lt;div&gt;&lt;b&gt;Load:&lt;/b&gt;&lt;/div&gt;&lt;div&gt;&lt;b&gt;1. Batch Processing&amp;nbsp;&lt;/b&gt;&lt;/div&gt;&lt;div&gt;&lt;b&gt;2. Full Load Trunk &amp;amp; insert&lt;/b&gt;&lt;/div&gt;&lt;div&gt;&lt;br&gt;&lt;/div&gt;&lt;div&gt;&lt;b&gt;No Transation&lt;/b&gt;&lt;/div&gt;&lt;div&gt;&lt;b&gt;&lt;br&gt;&lt;/b&gt;&lt;/div&gt;&lt;div&gt;&lt;b&gt;&lt;br&gt;&lt;/b&gt;&lt;/div&gt;" style="text;html=1;align=center;verticalAlign=middle;resizable=0;points=[];autosize=1;strokeColor=none;fillColor=none;fontSize=14;" vertex="1" parent="1">
          <mxGeometry x="275" y="500" width="200" height="150" as="geometry" />
        </mxCell>
        <mxCell id="gpXqBkKYN1dgfwq-3Qaj-29" value="&lt;b&gt;Object&amp;nbsp; Type:&lt;/b&gt; CSV file&amp;nbsp;&lt;div&gt;&lt;b&gt;Interface:&lt;/b&gt;&amp;nbsp; In Folder&lt;/div&gt;" style="text;html=1;align=center;verticalAlign=middle;resizable=0;points=[];autosize=1;strokeColor=none;fillColor=none;fontSize=20;" vertex="1" parent="1">
          <mxGeometry x="495" y="520" width="230" height="60" as="geometry" />
        </mxCell>
        <mxCell id="gpXqBkKYN1dgfwq-3Qaj-30" value="&lt;b&gt;Object&amp;nbsp; Type:&lt;/b&gt; CSV file&amp;nbsp;&lt;div&gt;&lt;b&gt;Interface:&lt;/b&gt;&amp;nbsp; In Folder&lt;/div&gt;" style="text;html=1;align=center;verticalAlign=middle;resizable=0;points=[];autosize=1;strokeColor=none;fillColor=none;fontSize=20;" vertex="1" parent="1">
          <mxGeometry x="740" y="520" width="230" height="60" as="geometry" />
        </mxCell>
      </root>
    </mxGraphModel>
  </diagram>
</mxfile>
